<svg xmlns="http://www.w3.org/2000/svg" width="94" height="94.001" fill="#c9732c" viewBox="0 0 24 24">
  <path id="Subtraction_1" data-name="Subtraction 1" d="M47,94A47.013,47.013,0,0,1,28.706,3.694,47.012,47.012,0,0,1,65.294,90.307,46.706,46.706,0,0,1,47,94Zm1.081-69.494a21.627,21.627,0,0,0-9.2,1.849A18.454,18.454,0,0,0,32.3,31.429,21.7,21.7,0,0,0,28.386,39a32.79,32.79,0,0,0-1.29,9.331,30.1,30.1,0,0,0,1.333,9.158,20.186,20.186,0,0,0,3.956,7.181c.255.293.524.581.8.856L30.06,71.4l6.18,3.286,2.828-5.318a20.051,20.051,0,0,0,3.243,1,26.177,26.177,0,0,0,5.6.571,24.211,24.211,0,0,0,7.622-1.119,16.276,16.276,0,0,0,5.837-3.353,17.52,17.52,0,0,0,4.009-5.418,25.167,25.167,0,0,0,2.139-7.31H60.034a12.874,12.874,0,0,1-3.741,8c-2.025,1.884-4.875,2.839-8.471,2.839a13.937,13.937,0,0,1-3.555-.431,10.6,10.6,0,0,1-2.021-.757L57.481,34.743a12.156,12.156,0,0,1,2.21,5.072h7.567a17.639,17.639,0,0,0-2.064-6.837A15.326,15.326,0,0,0,61.024,28.2l-.047-.035L63.94,22.6l-6.18-3.286L54.6,25.259A27.356,27.356,0,0,0,48.081,24.506ZM37.056,58.246v0a16.885,16.885,0,0,1-1.488-3.9,24.853,24.853,0,0,1-.731-6.02,30.421,30.421,0,0,1,.688-6.494,16.369,16.369,0,0,1,2.28-5.547,11.844,11.844,0,0,1,4.257-3.87,13.687,13.687,0,0,1,6.621-1.463,15.422,15.422,0,0,1,2.76.236L37.057,58.245Z"/>
</svg>
