<svg xmlns="http://www.w3.org/2000/svg" width="91.483" height="137.615" viewBox="0 0 24 24" fill="#c9732c">
  <path id="Union_1" data-name="Union 1" d="M22.871,137.615C10.24,137.615,0,128.374,0,116.973V20.642C0,9.242,10.24,0,22.871,0H68.612C81.244,0,91.483,9.242,91.483,20.642v96.331c0,11.4-10.239,20.642-22.871,20.642ZM15.248,20.642v96.331c0,3.8,3.413,6.881,7.623,6.881H68.612c4.208,0,7.624-3.082,7.624-6.881V20.642c0-3.8-3.416-6.881-7.624-6.881H60.989v2.293c0,3.8-3.415,6.881-7.623,6.881H38.119c-4.208,0-7.624-3.083-7.624-6.881V13.762H22.871C18.662,13.762,15.248,16.844,15.248,20.642ZM35.49,92.918a26.944,26.944,0,0,1-8.581-5.679,26.4,26.4,0,0,1-5.787-8.423,26.139,26.139,0,0,1,0-20.63,26.394,26.394,0,0,1,5.787-8.424,26.944,26.944,0,0,1,8.581-5.679,27.56,27.56,0,0,1,21.02,0,26.928,26.928,0,0,1,8.582,5.679,26.386,26.386,0,0,1,5.786,8.424,26.129,26.129,0,0,1,0,20.63,26.392,26.392,0,0,1-5.786,8.423,26.958,26.958,0,0,1-8.582,5.679,27.56,27.56,0,0,1-21.02,0Zm5.6-36.044a10.3,10.3,0,0,0-3.672,2.832,12.077,12.077,0,0,0-2.184,4.224,18.3,18.3,0,0,0-.72,5.208,16.791,16.791,0,0,0,.744,5.112,11.25,11.25,0,0,0,2.208,4.008c.2.224.4.441.619.645L36.268,82.26l3.551,1.853L41.5,81a11.745,11.745,0,0,0,1.855.513,14.957,14.957,0,0,0,2.773.247,10.83,10.83,0,0,0,7.511-2.5,11.476,11.476,0,0,0,3.433-7.1H52.9a7.194,7.194,0,0,1-2.088,4.464,6.707,6.707,0,0,1-4.729,1.584,8.179,8.179,0,0,1-1.616-.154A6.287,6.287,0,0,1,43.3,77.7l8.5-15.685a7.117,7.117,0,0,1,.914,2.375h4.225a9.851,9.851,0,0,0-1.152-3.816,8.662,8.662,0,0,0-1.933-2.351l1.885-3.479-3.55-1.853-1.889,3.488-.1-.029a15.012,15.012,0,0,0-3.96-.5A12.065,12.065,0,0,0,41.091,56.874Zm-.863,18.073a9.3,9.3,0,0,1-.986-2.449,13.876,13.876,0,0,1-.408-3.36,16.958,16.958,0,0,1,.384-3.624,9.134,9.134,0,0,1,1.272-3.1,6.631,6.631,0,0,1,2.376-2.16,7.64,7.64,0,0,1,3.7-.815,8.2,8.2,0,0,1,1.948.219L40.23,74.947v0Z"/>
</svg>
