<?xml version="1.0" encoding="iso-8859-1"?>
<!-- Generator: Adobe Illustrator 19.0.0, SVG Export Plug-In . SVG Version: 6.00 Build 0)  -->
<svg version="1.1" id="Layer_1" xmlns="http://www.w3.org/2000/svg" xmlns:xlink="http://www.w3.org/1999/xlink" x="0px" y="0px"
	 viewBox="0 0 512 512" style="enable-background:new 0 0 512 512;fill:#EA580B;" xml:space="preserve">
<g>
	<g>
		<path d="M452.887,250.554H60.061c-4.513,0-8.17,3.658-8.17,8.17c0,4.512,3.657,8.17,8.17,8.17h392.826
			c4.513,0,8.17-3.658,8.17-8.17C461.057,254.212,457.4,250.554,452.887,250.554z"/>
	</g>
</g>
<g>
	<g>
		<path d="M378.985,32.562H133.016c-4.513,0-8.17,3.658-8.17,8.17c0,4.512,3.657,8.17,8.17,8.17h245.969
			c4.513,0,8.17-3.658,8.17-8.17C387.155,36.22,383.498,32.562,378.985,32.562z"/>
	</g>
</g>
<g>
	<g>
		<path d="M454.808,32.562h-37.333l-9.417-27.074c-1.482-4.263-6.139-6.513-10.401-5.033c-4.262,1.483-6.514,6.14-5.033,10.401
			l60.639,174.336H58.738l60.639-174.336c1.482-4.262-0.771-8.919-5.033-10.401c-4.258-1.482-8.919,0.771-10.401,5.033
			l-9.417,27.074H57.192c-22.526,0-40.851,18.325-40.851,40.851V503.83c0,4.512,3.657,8.17,8.17,8.17h462.977
			c4.513,0,8.17-3.658,8.17-8.17V73.413C495.659,50.887,477.333,32.562,454.808,32.562z M32.682,73.413
			c0-13.516,10.996-24.511,24.51-24.511h31.65L32.682,210.366V73.413z M479.318,495.66H32.682V260.106l20.373-58.573h405.89
			l20.373,58.573V495.66z M479.318,210.366L423.157,48.902h31.65c13.515,0,24.51,10.995,24.51,24.511V210.366z"/>
	</g>
</g>
<g>
	<g>
		<path d="M332.255,76.257h-152.51c-22.526,0-40.851,18.325-40.851,40.851c0,22.526,18.325,40.851,40.851,40.851h152.51
			c22.526,0,40.851-18.325,40.851-40.851C373.106,94.582,354.781,76.257,332.255,76.257z M332.255,141.619h-152.51
			c-13.515,0-24.51-10.995-24.51-24.511c0-13.516,10.996-24.51,24.51-24.51h152.51c13.515,0,24.51,10.995,24.51,24.51
			C356.765,130.624,345.769,141.619,332.255,141.619z"/>
	</g>
</g>
<g>
	<g>
		<circle cx="81.843" cy="313.19" r="8.17"/>
	</g>
</g>
<g>
	<g>
		<circle cx="114.524" cy="345.871" r="8.17"/>
	</g>
</g>
<g>
	<g>
		<circle cx="430.154" cy="449.36" r="8.17"/>
	</g>
</g>
<g>
</g>
<g>
</g>
<g>
</g>
<g>
</g>
<g>
</g>
<g>
</g>
<g>
</g>
<g>
</g>
<g>
</g>
<g>
</g>
<g>
</g>
<g>
</g>
<g>
</g>
<g>
</g>
<g>
</g>
</svg>
